<?xml version="1.0" standalone="no"?><!DOCTYPE svg PUBLIC "-//W3C//DTD SVG 1.1//EN" "http://www.w3.org/Graphics/SVG/1.1/DTD/svg11.dtd"><svg class="icon" width="200px" height="200.00px" viewBox="0 0 1024 1024" version="1.1" xmlns="http://www.w3.org/2000/svg"><path fill="#7a7a7a" d="M546.133333 136.533333a102.4 102.4 0 0 1 102.4 102.4v34.133334h170.666667a34.133333 34.133333 0 0 1 0 68.266666h-34.133333v443.733334a102.4 102.4 0 0 1-102.4 102.4H341.333333a102.4 102.4 0 0 1-102.4-102.4V341.333333H204.8a34.133333 34.133333 0 1 1 0-68.266666h170.666667V238.933333a102.4 102.4 0 0 1 102.4-102.4h68.266666z m170.666667 204.8H307.2v443.733334a34.133333 34.133333 0 0 0 30.139733 33.8944L341.333333 819.2h341.333334a34.133333 34.133333 0 0 0 33.8944-30.139733L716.8 785.066667V341.333333z m-273.066667 102.4a34.133333 34.133333 0 0 1 34.133334 34.133334v204.8a34.133333 34.133333 0 0 1-68.266667 0v-204.8a34.133333 34.133333 0 0 1 34.133333-34.133334z m136.533334 0a34.133333 34.133333 0 0 1 34.133333 34.133334v204.8a34.133333 34.133333 0 0 1-68.266667 0v-204.8a34.133333 34.133333 0 0 1 34.133334-34.133334z m-34.133334-238.933333h-68.266666a34.133333 34.133333 0 0 0-33.8944 30.139733L443.733333 238.933333v34.133334h136.533334V238.933333a34.133333 34.133333 0 0 0-30.139734-33.8944L546.133333 204.8z"  /></svg>
